<?xml version="1.0" standalone="no"?>
<!DOCTYPE svg PUBLIC "-//W3C//DTD SVG 20010904//EN"
 "http://www.w3.org/TR/2001/REC-SVG-20010904/DTD/svg10.dtd">
<svg version="1.0" xmlns="http://www.w3.org/2000/svg"
 width="219.000000pt" height="231.000000pt" viewBox="0 0 219.000000 231.000000"
 preserveAspectRatio="xMidYMid meet">
<metadata>
Created by potrace 1.16, written by Peter Selinger 2001-2019
</metadata>
<g transform="translate(0.000000,231.000000) scale(0.100000,-0.100000)"
fill="#000000" stroke="none">
<path d="M0 1155 l0 -1155 1095 0 1095 0 0 1155 0 1155 -1095 0 -1095 0 0
-1155z m1206 770 c-7 -38 -15 -45 -48 -42 -46 3 -47 -21 -1 -29 48 -9 103 -36
85 -42 -8 -2 -19 1 -25 7 -6 6 -22 11 -36 10 -19 0 -10 -6 29 -20 67 -24 96
-22 92 6 -2 19 -2 19 11 2 13 -16 15 -16 28 -1 11 14 11 18 -2 28 -9 6 -21 22
-28 36 -9 17 -2 13 21 -14 31 -36 36 -38 56 -25 12 8 22 21 22 29 -1 12 -3 12
-14 -2 -19 -25 -24 -14 -16 37 4 28 3 46 -4 50 -6 2 -2 4 9 2 12 -1 27 -17 37
-37 9 -19 21 -40 27 -46 5 -6 11 -22 14 -35 2 -13 6 1 7 31 l3 55 6 -60 c4
-42 2 -67 -8 -83 -10 -17 -11 -25 -2 -36 10 -11 7 -19 -12 -38 -35 -33 -42
-63 -18 -80 27 -19 41 -187 17 -207 -9 -8 -16 -10 -17 -5 0 5 -8 -11 -17 -35
-9 -24 -24 -47 -32 -49 -12 -4 -13 -2 -4 9 7 8 8 22 3 34 -4 11 -8 35 -8 53
-1 17 -6 32 -13 32 -6 0 -20 7 -30 17 -17 15 -18 14 -18 -28 -1 -37 -2 -41
-11 -25 -9 15 -13 16 -21 5 -7 -10 -8 -9 -5 6 3 11 8 32 11 47 5 20 10 25 26
21 16 -4 20 0 20 20 0 25 -28 89 -42 95 -16 7 -58 52 -58 62 0 5 -6 10 -14 10
-7 0 -19 7 -27 16 -7 9 -21 13 -32 10 -11 -3 -33 2 -48 10 -32 16 -99 19 -99
4 0 -5 -3 -9 -7 -9 -19 3 -36 -2 -30 -8 4 -3 -2 -11 -12 -17 -10 -6 -27 -16
-38 -23 -16 -10 -20 -9 -20 3 0 7 7 14 14 14 8 0 11 5 8 11 -9 14 -50 -24 -65
-62 -7 -16 -16 -26 -21 -23 -13 8 -22 -42 -16 -84 4 -20 18 -48 32 -62 14 -14
32 -34 39 -44 13 -19 15 -19 30 -3 15 15 19 15 32 3 8 -8 14 -24 14 -35 0 -25
9 -26 57 -6 42 18 54 14 18 -5 -25 -13 -35 -40 -14 -40 5 0 8 -4 4 -10 -3 -5
8 -16 24 -25 28 -14 32 -14 67 10 20 14 45 25 55 25 9 0 26 3 36 6 10 4 2 -7
-18 -24 -62 -53 -32 -103 72 -118 24 -3 55 -9 69 -14 14 -4 34 -11 45 -15 16
-5 17 -8 5 -15 -11 -7 -8 -10 12 -15 15 -4 33 -3 40 1 9 6 9 3 -1 -10 -13 -15
-13 -19 0 -27 8 -5 28 -9 44 -10 l30 -1 -29 -8 c-16 -5 -32 -14 -36 -20 -10
-17 1 -61 16 -67 8 -3 12 -9 9 -13 -9 -14 14 -60 29 -60 10 0 13 -6 10 -15 -4
-8 -1 -15 5 -15 6 0 11 6 11 14 0 8 14 16 32 18 28 5 29 4 13 -9 -23 -16 -28
-43 -10 -43 8 0 26 -20 41 -45 30 -52 26 -62 -34 -91 -35 -18 -36 -19 -12 -22
29 -4 120 -32 120 -37 0 -2 3 -10 6 -18 5 -13 -2 -13 -49 0 -57 16 -153 11
-142 -8 4 -5 1 -9 -4 -9 -6 0 -11 5 -11 12 0 9 -3 9 -12 0 -8 -8 -8 -15 2 -26
7 -10 10 -26 5 -43 -5 -23 -4 -25 9 -14 31 26 15 -6 -20 -40 -26 -25 -34 -40
-31 -58 3 -14 -4 -36 -17 -55 l-22 -32 1 62 c0 50 4 67 22 86 33 35 45 74 28
88 -8 6 -19 9 -25 5 -15 -10 -12 4 9 33 26 38 44 98 36 122 -9 27 -22 22 -43
-15 -9 -17 -20 -31 -24 -33 -5 -2 -8 -9 -8 -15 0 -8 4 -7 12 1 14 14 38 16 38
3 0 -5 -13 -12 -30 -16 -32 -7 -42 -34 -12 -36 9 0 1 -6 -18 -13 -25 -9 -36
-21 -42 -43 -10 -37 -25 -51 -68 -60 -24 -4 -31 -3 -26 5 10 17 -14 15 -58 -3
-35 -15 -52 -31 -19 -18 11 4 14 3 9 -5 -4 -7 -23 -12 -42 -12 -55 0 -37 -24
21 -28 46 -3 47 -2 43 22 l-5 25 25 -19 c19 -16 28 -17 45 -9 14 8 30 8 59 0
21 -7 44 -9 51 -5 9 6 9 4 -1 -8 -10 -13 -20 -14 -54 -6 -36 8 -48 5 -95 -18
-49 -25 -57 -27 -89 -15 -32 11 -37 10 -65 -13 -30 -25 -56 -35 -45 -17 3 5 0
11 -8 14 -8 3 -12 14 -9 25 4 16 -6 21 -64 36 -37 10 -75 18 -83 18 -8 1 -20
5 -26 10 -6 4 -20 5 -29 1 -13 -4 -16 -3 -11 5 5 8 0 12 -13 12 -25 0 -39 -20
-14 -21 10 0 13 -3 5 -6 -6 -2 -15 -22 -18 -44 -4 -25 -11 -36 -18 -32 -6 4
-5 -1 2 -10 23 -27 9 -44 -16 -19 -12 12 -28 21 -34 19 -9 -1 -14 15 -16 48
-3 53 -17 79 -38 71 -9 -3 -9 2 2 22 19 38 18 49 -10 67 -28 19 -31 55 -4 55
9 0 20 -4 23 -10 12 -20 21 -10 23 26 2 20 -3 44 -11 53 -8 9 -17 31 -20 49
-6 29 -4 32 18 32 24 0 25 3 25 54 0 30 4 57 9 60 4 3 16 -20 26 -51 10 -31
24 -68 31 -82 8 -14 14 -38 14 -53 0 -17 10 -35 29 -51 25 -20 37 -24 73 -20
54 6 144 -24 196 -66 46 -36 92 -50 92 -28 0 22 29 41 60 39 30 -2 80 31 80
54 0 9 5 12 12 8 8 -5 9 -2 4 11 -3 10 0 28 9 41 14 21 13 24 -14 43 -15 11
-31 18 -35 14 -3 -3 -6 1 -6 11 0 9 -12 27 -27 40 -22 19 -35 23 -71 19 -24
-3 -56 -1 -71 2 l-26 8 35 16 c33 16 52 41 30 41 -5 0 -7 7 -4 15 6 14 -30 55
-71 83 -19 12 -19 13 -1 7 17 -5 35 8 36 27 0 18 -35 38 -67 38 -27 0 -34 -3
-29 -15 3 -9 0 -15 -9 -15 -8 0 -15 -9 -15 -20 0 -15 7 -20 29 -20 17 0 33 -5
37 -12 5 -7 3 -8 -7 -3 -11 7 -11 5 1 -9 14 -18 13 -18 -20 -11 -50 11 -76 25
-61 35 10 5 9 15 -2 43 -19 45 -49 55 -83 28 -40 -31 -99 -26 -73 6 9 10 8 18
-6 33 -16 18 -16 20 -2 20 9 0 18 -4 22 -10 7 -11 35 -2 35 11 0 14 -57 39
-74 33 -9 -3 -21 4 -31 20 -25 38 -63 60 -80 46 -11 -9 -19 -7 -36 9 -13 12
-30 22 -38 23 -9 1 9 4 39 7 l55 6 -3 70 c-2 45 -10 81 -22 102 -22 38 -26 59
-15 96 6 21 3 33 -12 50 -30 33 -36 56 -12 50 12 -3 19 0 19 8 0 10 3 10 12 1
16 -16 37 -15 69 2 15 7 50 14 78 15 73 3 90 5 89 11 -1 3 2 17 6 32 7 23 14
27 49 30 34 2 43 7 45 25 3 18 -1 21 -20 16 -13 -3 -29 -13 -35 -21 -17 -21
-22 -13 -16 21 3 17 13 29 27 33 26 6 84 -21 64 -30 -7 -3 2 -3 21 0 19 4 50
15 68 25 19 11 40 19 48 19 8 0 15 6 15 14 0 19 29 48 41 40 5 -3 7 -16 5 -29z"/>
<path d="M720 1579 c0 -5 -4 -8 -9 -4 -12 7 -24 -30 -17 -52 3 -10 8 -45 11
-77 7 -67 36 -128 71 -147 20 -10 27 -10 44 6 16 14 17 21 8 32 -9 11 -9 16 0
22 19 12 3 41 -23 41 -27 0 -51 25 -60 63 -10 37 -1 34 24 -8 11 -19 27 -35
36 -35 19 0 20 19 0 26 -8 4 -15 10 -15 15 0 6 9 5 20 -1 19 -10 20 -9 11 7
-5 10 -12 30 -16 46 -3 15 -10 27 -16 27 -6 0 -8 -4 -5 -8 2 -4 0 -14 -6 -22
-8 -13 -9 -12 -5 1 9 27 -14 41 -34 23 -17 -15 -18 -14 -12 20 3 20 3 36 -1
36 -3 0 -6 -5 -6 -11z"/>
</g>
</svg>
